# xmcd CD database file
#
# Track frame offsets:
#	150
#	15300
#	30782
#	46557
#	65367
#	86452
#	98055
#	110412
#	146532
#	165622
#
# Disc length: 2507 seconds
#
# Revision: 2
# Processed by: cddbd v1.4b41PL1 Copyright (c) Steve Scherf et al.
# Submitted via: Feurio! 1.50.2ß - http://www.feurio.com
#
DISCID=6509c90a
DTITLE=Stephen Miller - Dobrology
DYEAR=1900
DGENRE=
TTITLE0=The Good Old Days
TTITLE1=Mister Sandman
TTITLE2=St. Thomas
TTITLE3=Magnetic Rag
TTITLE4=Under Paris Skies
TTITLE5=Never Getting Older
TTITLE6=Yardbird Suite
TTITLE7=Delilah
TTITLE8=Guys And Dolls
TTITLE9=September Song
EXTD=
EXTT0=
EXTT1=
EXTT2=
EXTT3=
EXTT4=
EXTT5=
EXTT6=
EXTT7=
EXTT8=
EXTT9=
PLAYORDER=
